<?xml version="1.0" encoding="utf-8"?>
<!-- Generator: Adobe Illustrator 16.0.0, SVG Export Plug-In . SVG Version: 6.00 Build 0)  -->
<!DOCTYPE svg PUBLIC "-//W3C//DTD SVG 1.1//EN" "http://www.w3.org/Graphics/SVG/1.1/DTD/svg11.dtd">
<svg version="1.1" id="Layer_1" xmlns="http://www.w3.org/2000/svg" xmlns:xlink="http://www.w3.org/1999/xlink" x="0px" y="0px"
	 width="515.001px" height="113.08px" viewBox="0 0 515.001 113.08" style="enable-background:new 0 0 515.001 113.08;"
	 xml:space="preserve">
<path style="fill:#231F20;" d="M29.357,96.608c-4.218,0-7.651-3.431-7.651-7.648c0-4.219,3.433-7.65,7.651-7.65
	c4.22,0,7.653,3.432,7.653,7.65C37.01,93.178,33.577,96.608,29.357,96.608 M29.357,85.693c-1.799,0-3.263,1.468-3.263,3.267
	c0,1.8,1.464,3.264,3.263,3.264c1.801,0,3.265-1.464,3.265-3.264C32.623,87.161,31.158,85.693,29.357,85.693"/>
<path style="fill:#231F20;" d="M55.5,16.735c-1.414,0-2.5,1.146-2.5,2.56v72.141c0,6.898-5.785,12.562-12.681,12.562H21v-4.387
	l-11.934,6.891L21,113.396v-4.396h19.319c9.718,0,17.681-7.845,17.681-17.562V19.295C58,17.881,56.914,16.735,55.5,16.735"/>
<path style="fill:#808184;" d="M48.934,7.207L37,0.316V5H17.811C8.092,5,0,12.555,0,22.273v72.145c0,1.413,1.086,2.56,2.5,2.56
	S5,95.831,5,94.418V22.273C5,15.375,10.914,10,17.811,10H37v4.098L48.934,7.207z"/>
<path style="fill:#231F20;" d="M102.501,36.264c9.602,0,14.89,6.095,14.89,14.511v8.739c0,8.416-5.288,14.511-14.89,14.511H88.314
	V36.264H102.501z M113.237,59.515v-8.739c0-6.581-3.885-11.058-11.329-11.058h-9.44v30.856h9.44
	C109.353,70.573,113.237,66.095,113.237,59.515"/>
<path style="fill:#231F20;" d="M139.669,74.782c-10.574,0-15.862-7.498-15.862-16.617v-6.041c0-9.119,5.288-16.617,15.862-16.617
	c10.572,0,15.86,7.498,15.86,16.617v6.041C155.529,67.284,150.241,74.782,139.669,74.782 M151.321,58.384v-6.478
	c0-7.119-3.615-12.893-11.652-12.893c-8.039,0-11.654,5.774-11.654,12.893v6.478c0,7.119,3.615,12.893,11.654,12.893
	C147.707,71.276,151.321,65.503,151.321,58.384"/>
<path style="fill:#231F20;" d="M188.325,48.672c-0.162-5.288-4.045-9.658-10.843-9.658c-7.768,0-11.276,5.341-11.276,12.893v6.259
	c0,7.444,3.346,13.218,11.545,13.218c6.745,0,10.897-3.832,10.897-11.115v-0.971h-10.572v-3.507h14.619v3.991
	c0,8.688-5.341,15-14.997,15c-10.521,0-15.7-7.498-15.7-16.724v-5.988c0-9.658,5.449-16.563,15.43-16.563
	c9.224,0,14.728,5.72,14.889,13.164H188.325z"/>
<polygon style="fill:#231F20;" points="207.366,39.771 195.821,39.771 195.821,36.265 223.119,36.265 223.119,39.771 
	211.574,39.771 211.574,74.026 207.366,74.026 "/>
<path style="fill:#231F20;" d="M241.082,74.782c-10.574,0-15.862-7.498-15.862-16.617v-6.041c0-9.119,5.288-16.617,15.862-16.617
	c10.574,0,15.86,7.498,15.86,16.617v6.041C256.942,67.284,251.656,74.782,241.082,74.782 M252.734,58.384v-6.478
	c0-7.119-3.615-12.893-11.652-12.893c-8.039,0-11.654,5.774-11.654,12.893v6.478c0,7.119,3.615,12.893,11.654,12.893
	C249.119,71.276,252.734,65.503,252.734,58.384"/>
<polygon style="fill:#231F20;" points="297.778,74.025 293.731,74.025 283.753,40.85 273.771,74.025 269.726,74.025 260.771,36.265 
	264.816,36.265 271.938,68.417 281.647,36.265 285.855,36.265 295.566,68.417 302.688,36.265 306.733,36.265 "/>
<polygon style="fill:#231F20;" points="312.447,36.265 316.386,36.265 337.154,67.284 337.154,36.265 341.256,36.265 
	341.256,74.025 337.317,74.025 316.549,43.006 316.549,74.025 312.447,74.025 "/>
<polygon style="fill:#808184;" points="394.658,74.025 390.667,74.025 390.667,44.355 380.256,64.911 376.262,64.911 
	365.851,44.355 365.851,74.025 361.858,74.025 361.858,36.265 365.797,36.265 378.258,61.187 390.721,36.265 394.658,36.265 "/>
<polygon style="fill:#808184;" points="403.394,36.265 428.316,36.265 428.316,39.771 407.602,39.771 407.602,53.149 
	426.754,53.149 426.754,56.656 407.602,56.656 407.602,70.52 428.371,70.52 428.371,74.025 403.394,74.025 "/>
<path style="fill:#808184;" d="M449.353,36.264c9.602,0,14.89,6.095,14.89,14.511v8.739c0,8.416-5.288,14.511-14.89,14.511h-14.188
	V36.264H449.353z M460.088,59.515v-8.739c0-6.581-3.885-11.058-11.328-11.058h-9.44v30.856h9.44
	C456.203,70.573,460.088,66.095,460.088,59.515"/>
<rect x="472.062" y="36.265" style="fill:#808184;" width="4.207" height="37.761"/>
<path style="fill:#808184;" d="M515.001,74.024h-4.151l-3.453-9.6h-17.425l-3.399,9.6h-4.154l14.188-37.759h4.208L515.001,74.024z
	 M491.158,61.079h15.051l-7.5-20.987L491.158,61.079z"/>
</svg>
